<svg width="260" height="36" viewBox="0 0 260 36" fill="none" xmlns="http://www.w3.org/2000/svg">
<path d="M172.643 0V10.5V18.5L172.644 19.5656L172.644 23L172.643 24.1844L162.357 31.6578L166.286 19.5656L156 12.0922L168.714 12.0922L172.643 0Z" fill="#4F4A43"/>
<path d="M207.163 24V21.17H200.923V19.02L206.183 9.23H210.193V18.83H211.953V21.17H210.193V24H207.163ZM203.253 20.16L202.423 18.83H207.163V11.21L207.793 11.38L203.253 20.16ZM215.582 24.3C215.122 24.3 214.732 24.14 214.412 23.82C214.092 23.5 213.932 23.11 213.932 22.65C213.932 22.1967 214.092 21.81 214.412 21.49C214.732 21.17 215.122 21.01 215.582 21.01C216.035 21.01 216.422 21.17 216.742 21.49C217.062 21.81 217.222 22.1967 217.222 22.65C217.222 23.11 217.062 23.5 216.742 23.82C216.422 24.14 216.035 24.3 215.582 24.3ZM224.982 24.24C223.829 24.24 222.859 24.0433 222.072 23.65C221.286 23.25 220.692 22.7133 220.292 22.04C219.892 21.3667 219.692 20.6167 219.692 19.79C219.692 19.0367 219.839 18.41 220.132 17.91C220.432 17.41 220.796 17.0233 221.222 16.75C221.656 16.47 222.062 16.2933 222.442 16.22C222.122 16.1467 221.772 15.9833 221.392 15.73C221.019 15.4767 220.702 15.1167 220.442 14.65C220.182 14.1767 220.052 13.5767 220.052 12.85C220.052 12.09 220.262 11.4233 220.682 10.85C221.109 10.2767 221.692 9.83 222.432 9.51C223.179 9.19 224.029 9.03 224.982 9.03C225.936 9.03 226.782 9.19 227.522 9.51C228.262 9.83 228.846 10.2767 229.272 10.85C229.699 11.4233 229.912 12.09 229.912 12.85C229.912 13.57 229.779 14.1667 229.512 14.64C229.252 15.1133 228.936 15.4767 228.562 15.73C228.189 15.9833 227.839 16.1467 227.512 16.22C227.899 16.2933 228.306 16.47 228.732 16.75C229.159 17.0233 229.522 17.41 229.822 17.91C230.122 18.41 230.272 19.0367 230.272 19.79C230.272 20.6167 230.069 21.3667 229.662 22.04C229.262 22.7133 228.669 23.25 227.882 23.65C227.102 24.0433 226.136 24.24 224.982 24.24ZM224.982 21.83C225.382 21.83 225.739 21.7433 226.052 21.57C226.372 21.3967 226.626 21.1467 226.812 20.82C226.999 20.4933 227.092 20.0967 227.092 19.63C227.092 19.1833 227.002 18.7933 226.822 18.46C226.649 18.12 226.402 17.8567 226.082 17.67C225.769 17.4833 225.402 17.39 224.982 17.39C224.562 17.39 224.192 17.4833 223.872 17.67C223.552 17.8567 223.302 18.12 223.122 18.46C222.949 18.8 222.862 19.19 222.862 19.63C222.862 20.0967 222.956 20.4933 223.142 20.82C223.329 21.1467 223.582 21.3967 223.902 21.57C224.222 21.7433 224.582 21.83 224.982 21.83ZM224.982 15.06C225.569 15.06 226.036 14.8933 226.382 14.56C226.736 14.22 226.912 13.7733 226.912 13.22C226.912 12.82 226.826 12.49 226.652 12.23C226.486 11.9633 226.256 11.7667 225.962 11.64C225.669 11.5133 225.342 11.45 224.982 11.45C224.622 11.45 224.296 11.5133 224.002 11.64C223.709 11.7667 223.476 11.9633 223.302 12.23C223.136 12.49 223.052 12.82 223.052 13.22C223.052 13.7733 223.226 14.22 223.572 14.56C223.926 14.8933 224.396 15.06 224.982 15.06ZM239.889 8.37L234.319 25.55H231.819L237.389 8.37H239.889ZM250.841 11.59H245.001L244.471 15.44C244.491 15.3733 244.561 15.2833 244.681 15.17C244.801 15.0567 244.968 14.9433 245.181 14.83C245.401 14.71 245.671 14.6133 245.991 14.54C246.318 14.46 246.695 14.42 247.121 14.42C248.455 14.42 249.468 14.8533 250.161 15.72C250.861 16.58 251.211 17.7067 251.211 19.1C251.211 20.2133 251.018 21.1533 250.631 21.92C250.251 22.6867 249.688 23.2667 248.941 23.66C248.195 24.0467 247.265 24.24 246.151 24.24C245.245 24.24 244.475 24.1067 243.841 23.84C243.215 23.5667 242.705 23.2067 242.311 22.76C241.925 22.3067 241.641 21.8067 241.461 21.26C241.281 20.7067 241.191 20.1467 241.191 19.58C241.191 19.5667 241.191 19.56 241.191 19.56C241.191 19.5533 241.191 19.5467 241.191 19.54H244.261C244.261 19.5467 244.261 19.5533 244.261 19.56C244.261 19.56 244.261 19.5667 244.261 19.58C244.295 20.2933 244.461 20.8467 244.761 21.24C245.068 21.6333 245.548 21.83 246.201 21.83C246.621 21.83 246.971 21.7333 247.251 21.54C247.538 21.3467 247.751 21.0533 247.891 20.66C248.031 20.26 248.101 19.7633 248.101 19.17C248.101 18.37 247.961 17.75 247.681 17.31C247.401 16.8633 246.951 16.64 246.331 16.64C245.965 16.64 245.641 16.71 245.361 16.85C245.088 16.99 244.861 17.1633 244.681 17.37C244.508 17.5767 244.385 17.78 244.311 17.98L241.361 17.21L242.511 9.25H250.841V11.59Z" fill="#4F4A43"/>
<path d="M17.5 0L21.429 12.0922L34.1435 12.0922L23.8572 19.5656L27.7862 31.6578L17.5 24.1844L7.21376 31.6578L11.1428 19.5656L0.85651 12.0922L13.571 12.0922L17.5 0Z" fill="#4F4A43"/>
<path d="M56.5 0L60.429 12.0922L73.1435 12.0922L62.8572 19.5656L66.7862 31.6578L56.5 24.1844L46.2138 31.6578L50.1428 19.5656L39.8565 12.0922L52.571 12.0922L56.5 0Z" fill="#4F4A43"/>
<path d="M95.5 0L99.429 12.0922L112.143 12.0922L101.857 19.5656L105.786 31.6578L95.5 24.1844L85.2138 31.6578L89.1428 19.5656L78.8565 12.0922L91.571 12.0922L95.5 0Z" fill="#4F4A43"/>
<path d="M134.5 0L138.429 12.0922L151.143 12.0922L140.857 19.5656L144.786 31.6578L134.5 24.1844L124.214 31.6578L128.143 19.5656L117.857 12.0922L130.571 12.0922L134.5 0Z" fill="#4F4A43"/>
<path d="M172.643 -2.28882e-05L176.572 12.0922L189.287 12.0922L179.001 19.5656L182.93 31.6578L172.643 24.1844L162.357 31.6578L166.286 19.5656L156 12.0922L168.714 12.0922L172.643 -2.28882e-05Z" fill="#4F4A43" fill-opacity="0.62"/>
</svg>
