<svg width="260" height="36" viewBox="0 0 260 36" fill="none" xmlns="http://www.w3.org/2000/svg">
<path d="M207.407 24V21.17H201.167V19.02L206.427 9.23H210.437V18.83H212.197V21.17H210.437V24H207.407ZM203.497 20.16L202.667 18.83H207.407V11.21L208.037 11.38L203.497 20.16ZM215.826 24.3C215.366 24.3 214.976 24.14 214.656 23.82C214.336 23.5 214.176 23.11 214.176 22.65C214.176 22.1967 214.336 21.81 214.656 21.49C214.976 21.17 215.366 21.01 215.826 21.01C216.28 21.01 216.666 21.17 216.986 21.49C217.306 21.81 217.466 22.1967 217.466 22.65C217.466 23.11 217.306 23.5 216.986 23.82C216.666 24.14 216.28 24.3 215.826 24.3ZM224.927 24.24C223.747 24.24 222.783 23.9567 222.037 23.39C221.29 22.8167 220.74 22.0033 220.387 20.95C220.04 19.8967 219.867 18.65 219.867 17.21C219.867 15.8967 219.98 14.7333 220.207 13.72C220.433 12.7 220.767 11.8433 221.207 11.15C221.653 10.4567 222.2 9.93 222.847 9.57C223.493 9.21 224.237 9.03 225.077 9.03C225.977 9.03 226.713 9.18333 227.287 9.49C227.867 9.79 228.317 10.17 228.637 10.63C228.963 11.0833 229.19 11.5467 229.317 12.02C229.45 12.4867 229.517 12.8833 229.517 13.21C229.517 13.23 229.517 13.2433 229.517 13.25C229.517 13.2567 229.517 13.2667 229.517 13.28H226.627C226.627 13.2667 226.627 13.2567 226.627 13.25C226.627 13.2433 226.627 13.23 226.627 13.21C226.627 13.0433 226.603 12.86 226.557 12.66C226.517 12.4533 226.44 12.2567 226.327 12.07C226.22 11.8833 226.063 11.73 225.857 11.61C225.65 11.49 225.387 11.43 225.067 11.43C224.593 11.43 224.197 11.64 223.877 12.06C223.557 12.4733 223.317 13.1067 223.157 13.96C222.997 14.8067 222.917 15.89 222.917 17.21L222.347 17.22C222.367 16.7933 222.513 16.3867 222.787 16C223.06 15.6067 223.453 15.2867 223.967 15.04C224.487 14.7867 225.117 14.66 225.857 14.66C226.77 14.66 227.533 14.8667 228.147 15.28C228.767 15.6867 229.23 16.23 229.537 16.91C229.843 17.59 229.997 18.34 229.997 19.16C229.997 20.1333 229.807 21.0033 229.427 21.77C229.053 22.5367 228.49 23.14 227.737 23.58C226.983 24.02 226.047 24.24 224.927 24.24ZM224.967 21.83C225.393 21.83 225.747 21.7367 226.027 21.55C226.307 21.3633 226.517 21.0867 226.657 20.72C226.803 20.3533 226.877 19.9033 226.877 19.37C226.877 18.85 226.803 18.4067 226.657 18.04C226.517 17.6667 226.313 17.38 226.047 17.18C225.78 16.98 225.457 16.88 225.077 16.88C224.683 16.88 224.337 16.9733 224.037 17.16C223.737 17.3467 223.5 17.6167 223.327 17.97C223.16 18.3167 223.077 18.7433 223.077 19.25C223.077 19.7567 223.153 20.2033 223.307 20.59C223.467 20.9767 223.687 21.28 223.967 21.5C224.253 21.72 224.587 21.83 224.967 21.83ZM239.645 8.37L234.075 25.55H231.575L237.145 8.37H239.645ZM250.597 11.59H244.757L244.227 15.44C244.247 15.3733 244.317 15.2833 244.437 15.17C244.557 15.0567 244.724 14.9433 244.937 14.83C245.157 14.71 245.427 14.6133 245.747 14.54C246.074 14.46 246.45 14.42 246.877 14.42C248.21 14.42 249.224 14.8533 249.917 15.72C250.617 16.58 250.967 17.7067 250.967 19.1C250.967 20.2133 250.774 21.1533 250.387 21.92C250.007 22.6867 249.444 23.2667 248.697 23.66C247.95 24.0467 247.02 24.24 245.907 24.24C245 24.24 244.23 24.1067 243.597 23.84C242.97 23.5667 242.46 23.2067 242.067 22.76C241.68 22.3067 241.397 21.8067 241.217 21.26C241.037 20.7067 240.947 20.1467 240.947 19.58C240.947 19.5667 240.947 19.56 240.947 19.56C240.947 19.5533 240.947 19.5467 240.947 19.54H244.017C244.017 19.5467 244.017 19.5533 244.017 19.56C244.017 19.56 244.017 19.5667 244.017 19.58C244.05 20.2933 244.217 20.8467 244.517 21.24C244.824 21.6333 245.304 21.83 245.957 21.83C246.377 21.83 246.727 21.7333 247.007 21.54C247.294 21.3467 247.507 21.0533 247.647 20.66C247.787 20.26 247.857 19.7633 247.857 19.17C247.857 18.37 247.717 17.75 247.437 17.31C247.157 16.8633 246.707 16.64 246.087 16.64C245.72 16.64 245.397 16.71 245.117 16.85C244.844 16.99 244.617 17.1633 244.437 17.37C244.264 17.5767 244.14 17.78 244.067 17.98L241.117 17.21L242.267 9.25H250.597V11.59Z" fill="#4F4A43"/>
<path d="M17.5 0L21.429 12.0922L34.1435 12.0922L23.8572 19.5656L27.7862 31.6578L17.5 24.1844L7.21376 31.6578L11.1428 19.5656L0.85651 12.0922L13.571 12.0922L17.5 0Z" fill="#4F4A43"/>
<path d="M56.5 0L60.429 12.0922L73.1435 12.0922L62.8572 19.5656L66.7862 31.6578L56.5 24.1844L46.2138 31.6578L50.1428 19.5656L39.8565 12.0922L52.571 12.0922L56.5 0Z" fill="#4F4A43"/>
<path d="M95.5 0L99.429 12.0922L112.143 12.0922L101.857 19.5656L105.786 31.6578L95.5 24.1844L85.2138 31.6578L89.1428 19.5656L78.8565 12.0922L91.571 12.0922L95.5 0Z" fill="#4F4A43"/>
<path d="M134.5 0L138.429 12.0922L151.143 12.0922L140.857 19.5656L144.786 31.6578L134.5 24.1844L124.214 31.6578L128.143 19.5656L117.857 12.0922L130.571 12.0922L134.5 0Z" fill="#4F4A43"/>
<path d="M171.5 0L175.429 12.0922L188.143 12.0922L177.857 19.5656L181.786 31.6578L171.5 24.1844L161.214 31.6578L165.143 19.5656L154.857 12.0922L167.571 12.0922L171.5 0Z" fill="#4F4A43" fill-opacity="0.62"/>
</svg>
